<svg xmlns="http://www.w3.org/2000/svg" width="1024" height="1024" viewBox="139 139 747 747"><path fill="#FA676C" d="M548.284 613.07L547.59 612.564C524.986 620.179 500.758 621.146 478.085 613.035C471.792 628.504 465.766 644.08 460.012 659.758C457.05 667.728 452.744 676.809 451.679 685.154C450.685 693.258 451.791 701.482 454.892 709.036C459.893 720.978 469.056 728.198 480.363 733.763C498.58 741.474 525.722 741.359 544.291 734.353C564.631 726.678 577.738 705.187 574.17 683.533C572.708 674.659 567.747 663.771 564.397 655.135C558.847 641.182 553.476 627.16 548.284 613.07Z"/><path fill="#FA676C" d="M343.559 450.696C338.785 449.694 333.876 449.513 329.041 450.162C290.672 456.381 282.48 496.765 287.746 529.589C292.127 556.892 313.498 577.987 342.221 572.908C349.667 571.591 360.107 567.065 367.378 564.26C381 559.041 398.24 553.095 411.399 547.56C404.089 522.964 403.145 499.774 412.001 475.309C399.492 470.407 386.112 465.87 373.474 461.089C366.109 458.304 350.699 452.198 343.559 450.696Z"/><path fill="#FA676C" d="M732.486 476.615C725.043 458.811 706.168 448.77 687.217 449.679C680.199 450.321 674.456 452.932 667.917 455.366C649.879 462.082 632.196 470.045 614.082 476.513C622.231 502.964 622.216 521.493 614.054 547.936C631.321 553.723 649.306 561.099 666.541 567.519C674.861 570.591 680.749 573.499 689.89 573.525C739.892 573.668 747.52 512.575 732.486 476.615Z"/><path fill="#FA676C" d="M414.32 331.6C408.001 329.339 401.257 328.516 394.58 329.19C352.975 333.963 304.18 397.842 347.515 432.682C354.749 438.497 368.284 443.629 377.087 447.505C387.07 451.978 397.083 456.385 407.124 460.726L416.671 464.495C427.362 442.855 445.108 425.503 466.983 415.3C462.362 405.601 457.858 395.847 453.473 386.039C448.74 375.379 439.517 353.017 432.601 344.59C427.811 338.668 421.488 334.175 414.32 331.6Z"/><path fill="#FA676C" d="M509.496 285.848C507.245 285.972 504.54 285.875 502.374 286.206C474.405 288.828 448.798 307.109 451.525 338.662C452.438 349.22 461.018 367.722 465.116 378.07C469.385 388.876 473.513 399.737 477.501 410.65C495.398 405.956 504.45 404.274 523.216 405.558C531.23 406.568 539.768 408.123 547.376 410.876C551.045 402.141 555.005 392.143 558.207 383.286C559.724 379.089 561.526 374.779 563.36 370.391C571.221 351.583 579.682 331.342 568.918 312.478C556.921 291.452 532.236 284.596 509.496 285.848Z"/><path fill="#FA676C" d="M627.167 567.306C623.077 565.481 612.491 560.922 609.243 558.826C599.992 579.312 579.856 598.788 559.476 608.092C564.955 621.333 570.669 634.48 576.744 647.459C581.362 657.323 586.664 670.962 593.506 679.255C597.713 684.36 603.111 688.351 609.224 690.877C620.182 695.49 630.942 695.525 642.127 691.745C672.079 680.817 704.681 644.594 692.419 610.773C687.78 597.975 678.865 589.833 666.408 584.771C653.289 578.859 640.292 573.163 627.167 567.306Z"/><path fill="#FA676C" d="M424.004 572.48C422.394 570.118 417.383 560.095 415.76 559.899C403.222 565.492 390.632 570.967 377.991 576.321C359.962 584.11 341.014 589.618 333.854 609.798C325.249 634.05 336.042 655.034 353.687 671.62C363.94 681.257 371.344 687.116 384.702 692.116C397.645 695.84 408.971 695.506 421.016 688.752C426.137 685.887 430.57 681.937 434.004 677.179C436.546 673.653 438.578 669.671 440.347 665.714C448.921 646.523 458.012 627.329 466.243 608.005C448.478 598.367 435.762 589.736 424.004 572.48Z"/></svg>
